<?xml version="1.0" encoding="UTF-8"?>
<svg version="1.1" xmlns="http://www.w3.org/2000/svg" width="500" height="500">
<path d="M0 0 C165 0 330 0 500 0 C500 165 500 330 500 500 C335 500 170 500 0 500 C0 335 0 170 0 0 Z " fill="#F9F6F6" transform="translate(0,0)"/>
<path d="M0 0 C1.59521484 -0.01836914 1.59521484 -0.01836914 3.22265625 -0.03710938 C15.29496781 -0.05932835 26.64912615 1.85668896 36.3359375 9.66796875 C39.60894247 13.19638163 40.65790416 16.45037513 40.5 21.1875 C29.63948468 52.78642791 -18.35657712 74.34712004 -44.68774414 90.05859375 C-46.44843584 91.06049854 -46.44843584 91.06049854 -47.5 92.1875 C-47.54080783 94.18708364 -47.54254356 96.18795254 -47.5 98.1875 C-46.63503906 98.21328125 -45.77007812 98.2390625 -44.87890625 98.265625 C-12.75631068 99.71229256 23.86147947 106.26221253 46.9375 130.625 C52.0238749 136.67366205 55.30786485 143.6146695 57.5 151.1875 C59.48 151.5175 61.46 151.8475 63.5 152.1875 C63.5 153.5075 63.5 154.8275 63.5 156.1875 C62.85933594 156.36152344 62.21867187 156.53554688 61.55859375 156.71484375 C59.1232568 158.10133521 59.1232568 158.10133521 58.84765625 161.50390625 C58.74029566 162.91839043 58.64615845 164.33391629 58.5625 165.75 C57.1522961 181.27049936 52.03686252 194.64358468 44.5 208.1875 C44.14921387 208.82429687 43.79842773 209.46109375 43.43701172 210.1171875 C23.80712468 245.36645786 -7.57961068 270.71493579 -46.2734375 281.99609375 C-52.44918114 283.40852723 -58.75431274 283.41321024 -65.0625 283.5 C-65.93745117 283.51788574 -66.81240234 283.53577148 -67.71386719 283.55419922 C-79.12647059 283.53921081 -90.12103187 279.66892488 -98.83203125 272.18359375 C-105.30000238 265.47562369 -108.6083569 257.9594984 -108.9375 248.625 C-108.2044006 232.47390376 -98.23754419 220.32640778 -86.8203125 209.69140625 C-65.82262457 191.45357703 -39.35980672 179.68943751 -13.5 170.1875 C-12.51950684 169.82672363 -11.53901367 169.46594727 -10.52880859 169.09423828 C7.64505283 162.51012179 27.22790772 156.4231759 46.5 154.1875 C46.12211149 144.17345456 41.1540488 135.84890631 33.88671875 129.09375 C13.69290428 112.96513877 -12.83951211 107.27464265 -38.01953125 105.10546875 C-39.03132446 105.01599976 -40.04311768 104.92653076 -41.08557129 104.83435059 C-43.55683591 104.61619053 -46.02829736 104.40062983 -48.5 104.1875 C-48.51030746 105.06224472 -48.52061493 105.93698944 -48.53123474 106.83824158 C-48.6290351 115.06432358 -48.73152413 123.29033072 -48.83933926 131.5162878 C-48.89460687 135.74577614 -48.94803285 139.97527133 -48.99731445 144.20483398 C-49.04490159 148.28324663 -49.09724208 152.36157262 -49.15294075 156.43988228 C-49.17339 157.99925148 -49.19209875 159.55864446 -49.20907402 161.11805534 C-49.23306144 163.2948559 -49.26312319 165.47149124 -49.29467773 167.64819336 C-49.31799416 169.51017616 -49.31799416 169.51017616 -49.34178162 171.40977478 C-49.5 174.1875 -49.5 174.1875 -50.5 175.1875 C-52.9375 175.375 -52.9375 175.375 -55.5 175.1875 C-58.2951035 172.3923965 -57.77548643 170.63522594 -57.81884766 166.71826172 C-57.82889328 166.05472687 -57.8389389 165.39119202 -57.84928894 164.70755005 C-57.88021988 162.51077148 -57.89718312 160.31411531 -57.9140625 158.1171875 C-57.93276623 156.59545837 -57.95233904 155.07373969 -57.9727478 153.55203247 C-58.02415924 149.54406895 -58.06373649 145.53607177 -58.10089111 141.5279541 C-58.14087448 137.43912366 -58.19199259 133.35043432 -58.2421875 129.26171875 C-58.33905339 121.23707541 -58.42342379 113.21236247 -58.5 105.1875 C-59.54800781 105.11402344 -59.54800781 105.11402344 -60.6171875 105.0390625 C-61.98230469 104.92691406 -61.98230469 104.92691406 -63.375 104.8125 C-64.27992188 104.74289063 -65.18484375 104.67328125 -66.1171875 104.6015625 C-68.5 104.1875 -68.5 104.1875 -70.5 102.1875 C-70.46774292 99.77870178 -70.46774292 99.77870178 -69.5 97.1875 C-67.04031372 95.42918396 -67.04031372 95.42918396 -64.01611328 93.72827148 C-59.73240701 90.75964159 -59.73240701 90.75964159 -57.4887085 86.20852661 C-57.14998869 82.61034597 -57.13191844 79.14762842 -57.2421875 75.53515625 C-57.23568069 73.55578581 -57.22917374 71.57641536 -57.22265816 69.59704494 C-57.22793247 66.84597182 -57.28458766 64.09677326 -57.3394165 61.34631348 C-57.39876151 57.8501494 -57.4013629 54.35401806 -57.40625 50.85742188 C-57.41233594 46.93485564 -57.4282304 43.0133517 -57.48361206 39.09107971 C-57.50695114 37.35808876 -57.50695114 37.35808876 -57.53076172 35.59008789 C-57.54839569 34.56830948 -57.56602966 33.54653107 -57.584198 32.49378967 C-57.5 30.1875 -57.5 30.1875 -56.5 29.1875 C-53.5625 29 -53.5625 29 -50.5 29.1875 C-48.5 31.1875 -48.5 31.1875 -48.25949097 33.40213013 C-48.26393219 34.32146332 -48.26837341 35.24079651 -48.27294922 36.18798828 C-48.27310028 37.22891632 -48.27325134 38.26984436 -48.27340698 39.34231567 C-48.28372955 40.46942963 -48.29405212 41.59654358 -48.3046875 42.7578125 C-48.30893234 44.48485916 -48.30893234 44.48485916 -48.31326294 46.24679565 C-48.32448592 49.93546812 -48.34959444 53.62390053 -48.375 57.3125 C-48.38502706 59.80859025 -48.39415338 62.3046843 -48.40234375 64.80078125 C-48.42443216 70.92976984 -48.45793053 77.05861777 -48.5 83.1875 C-40.10712003 78.45442598 -31.80525605 73.63398221 -23.6875 68.4375 C-22.75172119 67.83897217 -21.81594238 67.24044434 -20.85180664 66.6237793 C8.55307388 49.01219413 8.55307388 49.01219413 29.5 23.1875 C30.33810611 19.02091533 30.08401624 16.0735936 27.6875 12.4375 C23.27933654 9.3258552 18.61468516 7.80266373 13.5 6.1875 C12.51 5.8575 11.52 5.5275 10.5 5.1875 C-1.09582822 4.40541909 -13.15381746 4.62157886 -24.5 7.1875 C-25.19625488 7.34347656 -25.89250977 7.49945313 -26.60986328 7.66015625 C-46.54281918 12.22980014 -71.25939935 19.64787204 -83.125 37.75 C-85.01771634 42.48179085 -84.44498625 45.53956979 -82.75 50.2890625 C-77.42947271 65.58557845 -80.54076817 81.95938895 -87.13452148 96.34155273 C-99.25203784 121.21875109 -120.44052962 136.83603349 -144.5 149.1875 C-145.26860352 149.58211426 -146.03720703 149.97672852 -146.82910156 150.38330078 C-156.6966097 155.38308585 -166.66206216 159.53992485 -177.17919922 162.98120117 C-177.97729004 163.24392822 -178.77538086 163.50665527 -179.59765625 163.77734375 C-180.30414307 164.00284912 -181.01062988 164.22835449 -181.73852539 164.46069336 C-183.71119849 165.14273431 -183.71119849 165.14273431 -185.5 167.1875 C-185.71203599 169.70483357 -185.80094049 172.11508485 -185.80297852 174.63476562 C-185.81141785 175.40237717 -185.81985718 176.16998871 -185.82855225 176.96086121 C-185.85440004 179.50516353 -185.86648636 182.04934975 -185.87890625 184.59375 C-185.89507333 186.35730925 -185.91225248 188.12085948 -185.93040466 189.88439941 C-185.97616276 194.53277427 -186.0109307 199.18116101 -186.04260254 203.82965088 C-186.09441175 211.27094736 -186.1595243 218.71211137 -186.23081779 226.15324402 C-186.25370158 228.7579532 -186.2699408 231.36264549 -186.28553772 233.96740723 C-186.29894202 235.55835149 -186.31255661 237.14929401 -186.32641602 238.74023438 C-186.32902939 239.46861008 -186.33164276 240.19698578 -186.33433533 240.94743347 C-186.38636967 245.96023933 -186.38636967 245.96023933 -187.5 248.1875 C-189.48 248.1875 -191.46 248.1875 -193.5 248.1875 C-195.83805477 244.53193258 -195.77098552 241.04578465 -195.72705078 236.84863281 C-195.72734283 236.11653091 -195.72763489 235.38442902 -195.72793579 234.63014221 C-195.72654547 232.21684811 -195.71099848 229.80386499 -195.6953125 227.390625 C-195.69158131 225.71482512 -195.68873484 224.03902306 -195.68673706 222.36322021 C-195.67910897 217.95731561 -195.65946756 213.55154333 -195.6373291 209.14569092 C-195.61685293 204.64792674 -195.60773155 200.15014113 -195.59765625 195.65234375 C-195.57622089 186.8306711 -195.54209487 178.00909656 -195.5 169.1875 C-196.49 169.5175 -197.48 169.8475 -198.5 170.1875 C-200.83299825 170.22704234 -203.16708189 170.23151732 -205.5 170.1875 C-205.5 168.8675 -205.5 167.5475 -205.5 166.1875 C-201.045 164.2075 -201.045 164.2075 -196.5 162.1875 C-196.49191315 160.78879669 -196.48382629 159.39009338 -196.47549438 157.94900513 C-196.39814445 144.79331098 -196.31043375 131.63772168 -196.21247292 118.48216438 C-196.16230874 111.71811316 -196.11586639 104.95407429 -196.078125 98.18994141 C-196.04171953 91.66709547 -195.99502273 85.14437108 -195.94193649 78.62163925 C-195.92334635 76.12808428 -195.90825565 73.63450077 -195.89665604 71.14090347 C-195.8798725 67.65906293 -195.85085681 64.17752984 -195.81884766 60.69580078 C-195.81668747 59.65570862 -195.81452728 58.61561646 -195.81230164 57.54400635 C-195.80113815 56.59887177 -195.78997467 55.65373718 -195.7784729 54.67996216 C-195.77017676 53.44383777 -195.77017676 53.44383777 -195.76171303 52.18274117 C-195.5 50.1875 -195.5 50.1875 -193.5 48.1875 C-190.4375 48 -190.4375 48 -187.5 48.1875 C-185.93188498 49.75561502 -186.35914283 51.30370704 -186.34178162 53.48377991 C-186.32709839 54.87417732 -186.32709839 54.87417732 -186.31211853 56.29266357 C-186.30636307 57.31764954 -186.3006076 58.3426355 -186.29467773 59.39868164 C-186.28477814 60.47172043 -186.27487854 61.54475922 -186.26467896 62.65031433 C-186.23295626 66.21607212 -186.20826412 69.78184325 -186.18359375 73.34765625 C-186.16303351 75.81245785 -186.1420373 78.27725586 -186.12062073 80.74205017 C-186.06530395 87.24399915 -186.01593718 93.74598046 -185.96777344 100.24798584 C-185.9181596 106.87694549 -185.86190588 113.5058511 -185.80664062 120.13476562 C-185.69894163 133.1523032 -185.59733369 146.16988101 -185.5 159.1875 C-182.2929465 157.91803312 -179.08773143 156.64398584 -175.8828125 155.36914062 C-174.98022705 155.01192932 -174.0776416 154.65471802 -173.14770508 154.28668213 C-166.74916767 151.73792653 -160.5590395 148.97172899 -154.5 145.6875 C-153.62754639 145.22174561 -152.75509277 144.75599121 -151.85620117 144.27612305 C-141.29748147 138.56332063 -131.68593346 131.92845516 -122.5 124.1875 C-121.66597656 123.50042969 -120.83195313 122.81335938 -119.97265625 122.10546875 C-104.60601978 108.96450844 -93.73367273 90.29373375 -92.0859375 69.91796875 C-91.46979278 57.43403645 -94.46123133 46.83872105 -102.69921875 37.171875 C-103.29347656 36.51703125 -103.88773438 35.8621875 -104.5 35.1875 C-105.02207031 34.57390625 -105.54414063 33.9603125 -106.08203125 33.328125 C-113.0642108 25.64942632 -122.33564972 21.36924138 -131.9375 17.875 C-132.59218262 17.63257568 -133.24686523 17.39015137 -133.92138672 17.14038086 C-145.69499612 13.09632745 -157.9343763 12.81144295 -170.25 12.875 C-171.38017044 12.87823273 -171.38017044 12.87823273 -172.53317261 12.88153076 C-182.64754691 12.92795344 -192.42550738 13.16484726 -202.28320312 15.64404297 C-204.96393746 16.30123621 -207.65938224 16.86853747 -210.359375 17.44140625 C-237.99247134 23.47398362 -265.65008093 34.82886064 -287.5 53.1875 C-288.31082031 53.85265625 -289.12164062 54.5178125 -289.95703125 55.203125 C-300.45898135 64.17253246 -309.87989355 75.11627029 -311.25 89.25 C-311.34928357 90.8949482 -311.4384377 92.54070861 -311.5 94.1875 C-316.87662338 94.66542208 -316.87662338 94.66542208 -319.375 92.75 C-321.44828647 88.02751416 -321.31953872 83.64215704 -319.69140625 78.765625 C-306.3792048 49.83807306 -271.57989155 31.9636702 -243.19140625 21.12109375 C-233.15628932 17.42669889 -223.00930731 14.36238896 -212.625 11.8125 C-211.66464844 11.5738623 -210.70429688 11.33522461 -209.71484375 11.08935547 C-194.81643368 7.61356243 -179.86791715 6.77126733 -164.625 6.8125 C-163.37657822 6.81431274 -163.37657822 6.81431274 -162.10293579 6.81616211 C-139.32293573 6.90582455 -118.08499756 10.44966605 -100.5 26.1875 C-99.51773438 27.01121094 -99.51773438 27.01121094 -98.515625 27.8515625 C-95.72307974 30.19406948 -93.05516061 32.5864383 -90.5 35.1875 C-90.02433594 34.65382812 -89.54867187 34.12015625 -89.05859375 33.5703125 C-66.60833707 9.67298587 -31.91532152 0.01934262 0 0 Z " fill="#074FAF" transform="translate(375.5,109.8125)"/>
<path d="M0 0 C1.93935668 24.78066873 -12.40437749 50.04281064 -27.5 68.8125 C-28.98908986 70.55107089 -30.48910457 72.28034528 -32 74 C-32.75667969 74.90105469 -33.51335937 75.80210937 -34.29296875 76.73046875 C-51.93313121 97.13320152 -80.98438082 116.11305849 -108.28125 118.2578125 C-117.97824074 118.57961529 -127.94492709 117.3803772 -136 111.5 C-141.7041056 105.83856851 -144.25504468 97.81860469 -144.5625 89.9375 C-143.78852203 74.29499792 -133.6392322 60.80130019 -122.43847656 50.57421875 C-92.96797248 24.61414659 -39.97320575 -0.79946411 0 0 Z " fill="#F8F6F6" transform="translate(424,270)"/>
</svg>
